# AST/ASF file generated using VICON BodyLanguage
# -----------------------------------------------
:version 1.10
:name VICON
:units
  mass 1.0
  length 0.45
  angle deg
:documentation
   .ast/.asf automatically generated from VICON data using
   VICON BodyBuilder and BodyLanguage model FoxedUp or BRILLIANT.MOD
:root
   order TX TY TZ RX RY RZ
   axis XYZ
   position 0 0 0  
   orientation 0 0 0 
:bonedata
  begin
     id 1 
     name lhipjoint
     direction 0.440178 -0.822639 0.359871 
     length 2.53113 
     axis 0 0 0  XYZ
  end
  begin
     id 2 
     name lfemur
     direction 0.34202 -0.939693 0  
     length 7.88132  
     axis 0 0 20  XYZ
    dof rx ry rz
    limits (-160.0 20.0)
           (-70.0 70.0)
           (-60.0 70.0)
  end
  begin
     id 3 
     name ltibia
     direction 0.34202 -0.939693 0   
     length 8.43783   
     axis 0 0 20   XYZ
    dof rx
    limits (-10.0 170.0)
  end
  begin
     id 4 
     name lfoot
     direction 0.0886351 -0.243523 0.965837   
     length 2.63414   
     axis -90 7.62852e-016 20   XYZ
    dof rx rz
    limits (-45.0 90.0)
           (-70.0 20.0)
  end
  begin
     id 5 
     name ltoes
     direction 1.53703e-011 -4.21717e-011 1   
     length 1.31427   
     axis -90 7.62852e-016 20   XYZ
    dof rx
    limits (-90.0 20.0)
  end
  begin
     id 6 
     name rhipjoint
     direction -0.399779 -0.839773 0.367367   
     length 2.47948  
     axis 0 0 0  XYZ 
  end
  begin
     id 7 
     name rfemur
     direction -0.34202 -0.939693 0   
     length 7.74806   
     axis 0 0 -20   XYZ
    dof rx ry rz
    limits (-160.0 20.0)
           (-70.0 70.0)
           (-70.0 60.0)
  end
  begin
     id 8 
     name rtibia
     direction -0.34202 -0.939693 0   
     length 8.74432   
     axis 0 0 -20   XYZ
    dof rx
    limits (-10.0 170.0)
 end
 begin
     id 9 
     name rfoot
     direction -0.108514 -0.298139 0.948334   
     length 2.66102  
     axis -90 -7.62852e-016 -20   XYZ
    dof rx rz
    limits (-45.0 90.0)
           (-20.0 70.0)
  end
  begin
     id 10 
     name rtoes
     direction -1.53392e-011 -4.22077e-011 1   
     length 1.31983   
     axis -90 -7.62852e-016 -20   XYZ
    dof rx
    limits (-90.0 20.0)
  end
  begin
     id 11 
     name lowerback
     direction 0.0113257 0.999866 0.0118602   
     length 2.58694   
     axis 0 0 0   XYZ
    dof rx ry rz
    limits (-20.0 45.0)
           (-30.0 30.0)
           (-30.0 30.0)
  end
  begin
     id 12 
     name upperback
     direction -0.0164747 0.995193 -0.0965375   
     length 2.52368   
     axis 0 0 0   XYZ
    dof rx ry rz
    limits (-20.0 45.0)
           (-30.0 30.0)
           (-30.0 30.0)
  end
  begin
     id 13 
     name thorax
     direction -0.0194301 0.99433 -0.104552   
     length 2.56099   
     axis 0 0 0   XYZ
    dof rx ry rz
    limits (-20.0 45.0)
           (-30.0 30.0)
           (-30.0 30.0)
  end
  begin
     id 14 
     name lowerneck
     direction 0.0148543 0.995587 -0.092657   
     length 1.71582   
     axis 0 0 0   XYZ
    dof rx ry rz
    limits (-20.0 45.0)
           (-30.0 30.0)
           (-30.0 30.0)
  end
  begin
     id 15 
     name upperneck
     direction -0.0135467 0.993656 -0.111639   
     length 1.68937   
     axis 0 0 0   XYZ
    dof rx ry rz
    limits (-20.0 45.0)
           (-30.0 30.0)
           (-30.0 30.0)
  end
  begin
     id 16
     name head
     direction -0.00615349 0.999547 -0.029448  
     length 1.7462  
     axis 0 0 0   XYZ
    dof rx ry rz
    limits (-20.0 45.0)
           (-30.0 30.0)
           (-30.0 30.0)
  end
  begin
     id 17 
     name lclavicle
     direction 0.988267 0.149885 0.0293713  
     length 4.47222  
     axis 0 0 0   XYZ
    dof ry rz
    limits (-20.0 10.0)
           (0.0 20.0)
  end
  begin
     id 18 
     name lhumerus
     direction 1 -4.48986e-011 -1.14833e-027   
     length 5.37148   
     axis 180 -30 -90   XYZ
    dof rx ry rz
    limits (-60.0 90.0)
           (-90.0 90.0)
           (-90.0 90.0)
  end
  begin
     id 19
     name lradius
     direction 0.999998 0.00170963 -0.000987055   
     length 3.94212   
     axis 180 -30 -90   XYZ
    dof rx
    limits (-10.0 170.0)
  end
  begin
     id 20
     name lwrist
     direction 0.999998 7.53149e-005 -0.00194706   
     length 1.97106   
     axis 4.65056e-015 90 90   XYZ
    dof ry
    limits (-180.0 0.0)
 end
  begin
     id 21 
     name lhand
     direction 1 -4.48973e-011 -1.31746e-026   
     length 1.17917   
     axis 8.4065e-015 90 90   XYZ
    dof rx rz
    limits (-90.0 90.0)
           (-45.0 45.0)
  end
  begin
     id 22 
     name lfingers
     direction 1 -4.49107e-011 -2.63492e-026   
     length 0.950679   
     axis 1.6813e-014 90 90   XYZ
    dof rx
    limits (0.0 90.0)
  end
  begin
     id 23
     name lthumb
     direction 0.707107 -6.35048e-011 0.707107   
     length 1.36499   
     axis -90 45 2.85299e-015   XYZ
    dof rx rz
    limits (-45.0 45.0)
           (-45.0 45.0)
  end
  begin
     id 24 
     name rclavicle
     direction -0.996699 0.0642895 -0.0495725   
     length 4.62611  
     axis 0 0 0   XYZ 
    dof ry rz
    limits (-10.0 20.0)
           (-20.0 0.0)
  end
  begin
     id 25 
     name rhumerus
     direction -1 -4.48919e-011 -2.41059e-027  
     length 5.4981   
     axis 180 30 90   XYZ
    dof rx ry rz
    limits (-90.0 60.0)
           (-90.0 90.0)
           (-90.0 90.0)
  end
  begin
     id 26 
     name rradius
     direction -0.999999 0.00118101 -0.000681858   
     length 3.48381   
     axis 180 30 90   XYZ
    dof rx
    limits (-10.0 170.0)
  end
  begin
     id 27 
     name rwrist
     direction -0.999999 0.000321823 -0.00132288   
     length 1.7419   
     axis 4.65056e-015 -90 -90   XYZ
    dof ry
    limits (-180.0 0.0)
  end
  begin
     id 28
     name rhand
     direction -1 -4.49022e-011 -1.31746e-026   
     length 1.34932   
     axis 8.4065e-015 -90 -90   XYZ
    dof rx rz
    limits (-90.0 90.0)
           (-45.0 45.0)
  end
  begin
     id 29
     name rfingers
     direction -1 -4.49178e-011 -2.63492e-026   
     length 1.08785   
     axis 1.6813e-014 -90 -90   XYZ
    dof rx
    limits (0.0 90.0)
  end
  begin
     id 30
     name rthumb
     direction -0.707107 -6.34713e-011 0.707107   
     length 1.56195   
     axis -90 -45 -2.85299e-015   XYZ
    dof rx rz
    limits (-45.0 45.0)
           (-45.0 45.0)
  end
:hierarchy
  begin
    root lhipjoint rhipjoint lowerback
    lhipjoint lfemur
    lfemur ltibia
    ltibia lfoot
    lfoot ltoes
    rhipjoint rfemur
    rfemur rtibia
    rtibia rfoot
    rfoot rtoes
    lowerback upperback
    upperback thorax
    thorax lowerneck lclavicle rclavicle
    lowerneck upperneck
    upperneck head
    lclavicle lhumerus
    lhumerus lradius
    lradius lwrist
    lwrist lhand lthumb
    lhand lfingers
    rclavicle rhumerus
    rhumerus rradius
    rradius rwrist
    rwrist rhand rthumb
    rhand rfingers
  end

#!OML:ASF X:\für Bonn\!DataBase\2005_08_10_Bjorn_Final\c3d\bjorn.ASF
:FULLY-SPECIFIED
:DEGREES
1
root 0.747072 19.1161 1.85232 -174.816 -0.440004 -179.766
lowerback -5.0227 1.9555 3.55137
upperback 3.00115 2.35093 -0.724118
thorax 6.12528 1.30894 -2.50486
lowerneck -3.84852 -3.21894 -0.552444
upperneck 9.15309 -4.35923 -1.40848
head 3.61756 -2.31537 -0.558665
rclavicle 2.29907e-014 -1.39149e-015
rhumerus 67.8972 0.981828 -82.539
rradius 7.7646
rwrist 53.9916
rhand -11.5431 7.60051
rfingers 7.12502
rthumb 14.4972 -21.873
lclavicle 2.29907e-014 -1.39149e-015
lhumerus 74.2628 -15.8064 70.8254
lradius 6.85769
lwrist -49.4164
lhand -15.8827 -7.62457
lfingers 7.12502
lthumb 10.3133 22.1026
rfemur -14.2966 -11.6006 16.9699
rtibia 32.2172
rfoot -19.305 13.5989
rtoes -16.0938
lfemur -12.1372 10.6993 -15.2281
ltibia 29.6977
lfoot -16.4726 -15.5209
ltoes -8.59113
2
root 0.754427 19.1068 1.85602 -175.115 -0.349142 -179.743
lowerback -4.82966 1.96334 3.4869
upperback 3.14305 2.3628 -0.68929
thorax 6.16091 1.31113 -2.4348
lowerneck -3.87409 -3.23617 -0.631336
upperneck 8.89933 -4.36886 -1.34212
head 3.53723 -2.31331 -0.5195
rclavicle -1.22936e-014 5.26779e-015
rhumerus 67.8278 1.01686 -82.6816
rradius 7.78932
rwrist 53.8422
rhand -11.597 7.49309
rfingers 7.12502
rthumb 14.4453 -21.9842
lclavicle -1.22936e-014 5.26779e-015
lhumerus 74.142 -15.9131 70.8269
lradius 7.11036
lwrist -48.3732
lhand -15.7784 -7.59303
lfingers 7.12502
lthumb 10.4139 22.1291
rfemur -14.011 -11.4529 16.9624
rtibia 32.2863
rfoot -19.4916 13.5235
rtoes -15.9464
lfemur -11.8848 10.2208 -15.1876
ltibia 29.8783
lfoot -16.8011 -14.855
ltoes -9.22238
3
root 0.761205 19.0968 1.8607 -175.365 -0.267451 -179.722
lowerback -4.63413 1.9926 3.46238
upperback 3.24818 2.40361 -0.688791
thorax 6.16173 1.32939 -2.4207
lowerneck -3.83244 -3.27533 -0.685794
upperneck 8.59019 -4.41287 -1.23815
head 3.42521 -2.32531 -0.471378
rclavicle 1.34801e-015 -4.82053e-015
rhumerus 67.7647 0.974756 -82.8398
rradius 7.76273
rwrist 53.6328
rhand -11.681 7.48517
rfingers 7.12502
rthumb 14.3644 -21.9978
lclavicle 1.34801e-015 -4.82053e-015
lhumerus 74.0509 -16.1159 70.8167
lradius 7.32794
lwrist -47.3221
lhand -15.6521 -7.64457
lfingers 7.12502
lthumb 10.5357 22.0714
rfemur -13.7893 -11.3173 16.9603
rtibia 32.3615
rfoot -19.6746 13.4892
rtoes -15.688
lfemur -11.7054 9.70425 -15.172
ltibia 30.0899
lfoot -17.2155 -14.0584
ltoes -10.3714
4
root 0.76814 19.0863 1.86757 -175.623 -0.186408 -179.72
lowerback -4.39819 2.01303 3.4243
upperback 3.3669 2.43427 -0.704883
thorax 6.15306 1.34196 -2.41866
lowerneck -3.89628 -3.3049 -0.710484
upperneck 8.33898 -4.44562 -1.11961
head 3.3538 -2.33064 -0.42686
rclavicle -1.39274e-014 -2.33572e-015
rhumerus 67.7371 0.94151 -83.026
rradius 7.7343
rwrist 53.4871
rhand -11.7632 7.4638
rfingers 7.12502
rthumb 14.2852 -22.0248
lclavicle -1.39274e-014 -2.33572e-015
lhumerus 73.9886 -16.2822 70.7637
lradius 7.5249
lwrist -46.3557
lhand -15.51 -7.79943
lfingers 7.12502
lthumb 10.6728 21.9095
rfemur -13.5728 -11.1301 16.9465
rtibia 32.4564
rfoot -19.9149 13.3716
rtoes -15.5734
lfemur -11.5341 9.08969 -15.1834
ltibia 30.3288
lfoot -17.6128 -13.237
ltoes -11.2856
5
root 0.774923 19.0748 1.87635 -175.881 -0.106457 -179.698
lowerback -4.1031 2.03081 3.39251
upperback 3.47021 2.46132 -0.698951
thorax 6.09305 1.35135 -2.39992
lowerneck -4.00189 -3.33631 -0.779342
upperneck 8.1274 -4.47952 -0.985906
head 3.30593 -2.33815 -0.37174
rclavicle 3.68994e-015 9.7156e-015
rhumerus 67.6911 0.911323 -83.1825
rradius 7.74274
rwrist 53.3736
rhand -11.8769 7.47417
rfingers 7.12502
rthumb 14.1756 -22.0222
lclavicle 3.68994e-015 9.7156e-015
lhumerus 73.899 -16.4434 70.7421
lradius 7.69089
lwrist -45.6638
lhand -15.4912 -7.94743
lfingers 7.12502
lthumb 10.6909 21.7606
rfemur -13.3664 -10.9363 16.9517
rtibia 32.5678
rfoot -20.1457 13.3147
rtoes -15.3054
lfemur -11.3956 8.4244 -15.1842
ltibia 30.6093
lfoot -18.0232 -12.3135
ltoes -12.1254
6
root 0.780352 19.0627 1.88648 -176.101 -0.0265182 -179.658
lowerback -3.83387 2.03877 3.3739
upperback 3.57422 2.4717 -0.670248
thorax 6.04697 1.35254 -2.36578
lowerneck -4.16922 -3.35695 -0.872978
upperneck 7.95093 -4.49498 -0.876169
head 3.28228 -2.33873 -0.321498
rclavicle 1.86236e-014 -5.26779e-015
rhumerus 67.6786 0.922486 -83.3181
rradius 7.72285
rwrist 53.2993
rhand -12.013 7.54454
rfingers 7.12502
rthumb 14.0445 -21.9609
lclavicle 1.86236e-014 -5.26779e-015
lhumerus 73.8171 -16.5579 70.7405
lradius 7.83299
lwrist -45.1461
lhand -15.4942 -8.07763
lfingers 7.12502
lthumb 10.6881 21.6305
rfemur -13.2263 -10.7655 16.9859
rtibia 32.7112
rfoot -20.3928 13.231
rtoes -15.1281
lfemur -11.3293 7.72532 -15.1798
ltibia 30.9395
lfoot -18.4273 -11.3694
ltoes -12.9464
7
root 0.786183 19.0474 1.8963 -176.33 0.0509187 -179.58
lowerback -3.5457 1.94804 3.41036
upperback 3.68413 2.51822 -0.65239
thorax 5.99795 1.44545 -2.36395
lowerneck -4.32991 -3.3856 -0.910969
upperneck 7.74671 -4.52355 -0.776959
head 3.24618 -2.34421 -0.284218
rclavicle -2.17483e-014 2.6339e-015
rhumerus 67.6461 0.887415 -83.4653
rradius 7.75883
rwrist 53.2584
rhand -12.185 7.56047
rfingers 7.12502
rthumb 13.8787 -21.9564
lclavicle -2.17483e-014 2.6339e-015
lhumerus 73.7562 -16.714 70.7216
lradius 7.93781
lwrist -44.7663
lhand -15.6579 -8.22852
lfingers 7.12502
lthumb 10.5302 21.4877
rfemur -13.0864 -10.5566 17.0658
rtibia 32.8961
rfoot -20.725 13.1149
rtoes -15.1062
lfemur -11.2889 7.01262 -15.1234
ltibia 31.3482
lfoot -18.8 -10.4951
ltoes -13.2799
8
root 0.79062 19.0283 1.90645 -176.549 0.137808 -179.464
lowerback -3.25226 1.96584 3.51151
upperback 3.78465 2.55473 -0.637124
thorax 5.94239 1.47269 -2.409
lowerneck -4.45528 -3.41084 -0.969987
upperneck 7.53234 -4.5509 -0.627042
head 3.20187 -2.34809 -0.226099
rclavicle 4.12478e-014 1.51573e-015
rhumerus 67.5592 0.829959 -83.6242
rradius 7.85505
rwrist 53.2155
rhand -12.3249 7.59128
rfingers 7.12502
rthumb 13.7439 -21.9348
lclavicle 4.12478e-014 1.51573e-015
lhumerus 73.6796 -16.8905 70.6895
lradius 8.03355
lwrist -44.6284
lhand -15.9672 -8.32731
lfingers 7.12502
lthumb 10.2318 21.4038
rfemur -13.0064 -10.3313 17.1829
rtibia 33.1582
rfoot -21.0498 13.064
rtoes -14.8362
lfemur -11.317 6.29071 -15.0431
ltibia 31.8604
lfoot -19.2483 -9.46953
ltoes -13.8707
